<?xml version="1.0" encoding="UTF-8"?>
<svg id="Capa_2" data-name="Capa 2" xmlns="http://www.w3.org/2000/svg" viewBox="0 0 98.3 101.81">
  <defs>
    <style>
      .cls-1 {
        fill: #fff;
      }
    </style>
  </defs>
  <g id="Capa_1-2" data-name="Capa 1">
    <path class="cls-1" d="M85.36,45.37c-3.62-.18-7.1,1.08-9.79,3.52-.68,.62-1.29,1.29-1.82,2.01l-13.49-3.19c0-.55-.02-1.11-.08-1.67-.84-7.44-7.58-12.82-15.02-11.98h0c-7.44,.84-12.82,7.58-11.98,15.02,.41,3.61,2.19,6.84,5.03,9.1,2.7,2.15,6.05,3.19,9.48,2.93,.17-.01,.34-.03,.52-.05,3.61-.41,6.84-2.19,9.1-5.03,.6-.75,1.11-1.55,1.53-2.38l12.5,2.95c-.1,.55-.16,1.12-.19,1.69-.17,3.62,1.08,7.1,3.52,9.79,.41,.45,.84,.87,1.3,1.25-4.28,5.63-10.24,9.9-17.12,12.09-1.53-2.65-3.96-4.81-7.06-5.95h0c-6.01-2.21-12.59,.1-16,5.21-5.99-2.34-11.17-6.31-15.01-11.35,1.05-.65,2.01-1.45,2.87-2.39,2.44-2.69,3.69-6.16,3.52-9.79-.34-7.13-6.15-12.73-13.17-12.93,.78-6.4,3.31-12.26,7.09-17.1,1.39,.48,2.87,.72,4.38,.72,.22,0,.44,0,.66-.02,7.06-.34,12.61-6.03,12.92-12.96,2.77-.71,5.66-1.1,8.65-1.1s6.14,.42,9.01,1.2c.11,1.13,.37,2.26,.79,3.38,2.04,5.46,7.23,8.84,12.74,8.84,1.57,0,3.17-.28,4.73-.86,3.4-1.27,6.1-3.78,7.61-7.08,1.51-3.3,1.64-6.99,.37-10.39-1.27-3.4-3.78-6.1-7.08-7.61-3.3-1.51-6.99-1.64-10.39-.37-3.02,1.13-5.4,3.22-6.93,5.8-3.47-.9-7.1-1.39-10.85-1.39s-7.44,.5-10.93,1.41c-.61-.9-1.33-1.74-2.15-2.49-2.69-2.44-6.16-3.69-9.79-3.52-3.62,.17-6.96,1.75-9.41,4.43-2.44,2.69-3.69,6.16-3.52,9.79,.12,2.58,.96,5.02,2.4,7.09-5.42,6.97-8.75,15.65-9.04,25.07-.61,.48-1.19,1.01-1.72,1.59C1.09,51.34-.16,54.81,.02,58.44c.17,3.62,1.75,6.96,4.43,9.41,2.08,1.89,4.63,3.06,7.35,3.42,5.05,8.04,12.67,14.31,21.7,17.64,.09,1.71,.5,3.41,1.24,5.01,1.52,3.3,4.23,5.8,7.64,7.06,1.53,.56,3.12,.85,4.71,.85,1.94,0,3.87-.42,5.68-1.26,3.3-1.52,5.8-4.23,7.06-7.64,.38-1.04,.63-2.09,.75-3.14,9.7-2.87,17.99-9.06,23.54-17.26,.21,0,.41,.02,.61,.01,3.38,0,6.6-1.24,9.12-3.53,2.69-2.44,4.26-5.78,4.43-9.41,.36-7.48-5.44-13.86-12.92-14.22Zm-32.83,6.85c-1.24,1.56-3.02,2.54-5.01,2.77-1.98,.23-3.93-.34-5.5-1.58-1.56-1.24-2.54-3.02-2.77-5.01-.46-4.09,2.5-7.8,6.59-8.26,4.1-.47,7.8,2.5,8.26,6.59,.22,1.98-.34,3.93-1.58,5.5ZM67.6,6.59c.85-.32,1.73-.47,2.61-.47,1.06,0,2.11,.23,3.1,.68,1.82,.83,3.2,2.32,3.9,4.19,.7,1.87,.62,3.9-.21,5.72-.83,1.82-2.32,3.2-4.19,3.9-3.86,1.44-8.17-.53-9.61-4.39-1.44-3.86,.53-8.17,4.39-9.61Zm-47.67,2.63c1.34-1.48,3.18-2.34,5.17-2.44,.12,0,.24,0,.37,0,1.86,0,3.63,.68,5.02,1.94,1.48,1.34,2.34,3.18,2.44,5.17,.2,4.12-2.99,7.62-7.11,7.82-2,.09-3.91-.59-5.38-1.93-1.48-1.34-2.34-3.18-2.44-5.17-.1-1.99,.59-3.9,1.93-5.38ZM6.12,58.15c-.1-1.99,.59-3.91,1.93-5.38,1.34-1.48,3.18-2.34,5.17-2.44,.12,0,.24,0,.36,0,3.96,0,7.27,3.12,7.46,7.12,.1,1.99-.59,3.9-1.93,5.38-1.34,1.48-3.18,2.34-5.17,2.44-1.99,.09-3.91-.59-5.38-1.93-1.48-1.34-2.34-3.18-2.44-5.17Zm47.97,32.65c-.69,1.87-2.07,3.36-3.88,4.2-1.81,.84-3.84,.92-5.71,.23-1.87-.69-3.36-2.07-4.2-3.88-.84-1.81-.92-3.84-.23-5.71,1.11-3.02,3.98-4.89,7.02-4.89,.86,0,1.73,.15,2.58,.46,3.87,1.43,5.85,5.73,4.43,9.6Zm35.64-26.33c-1.48,1.34-3.39,2.03-5.38,1.93-1.99-.1-3.83-.96-5.17-2.44-1.34-1.48-2.03-3.39-1.93-5.38,.1-1.99,.96-3.83,2.44-5.17,1.39-1.26,3.16-1.94,5.02-1.94,.12,0,.24,0,.37,0,4.12,.2,7.3,3.71,7.11,7.82-.1,1.99-.96,3.83-2.44,5.17Z"/>
  </g>
</svg>