<?xml version="1.0" encoding="UTF-8"?>
<svg id="Capa_2" data-name="Capa 2" xmlns="http://www.w3.org/2000/svg" viewBox="0 0 202.84 210.08">
  <defs>
    <style>
      .cls-1 {
        fill: #f77f00;
      }
    </style>
  </defs>
  <g id="Capa_1-2" data-name="Capa 1">
    <g>
      <path class="cls-1" d="M144.92,56.08c-11.38,0-22.1-6.97-26.3-18.24-5.4-14.48,1.99-30.66,16.48-36.06,7.02-2.62,14.63-2.34,21.44,.77,6.81,3.11,12,8.69,14.62,15.71,2.62,7.02,2.34,14.63-.77,21.44-3.11,6.81-8.69,12-15.71,14.62-3.22,1.2-6.52,1.77-9.76,1.77Zm-.02-43.46c-1.82,0-3.64,.33-5.39,.98-7.97,2.97-12.03,11.87-9.06,19.83,2.97,7.97,11.87,12.03,19.83,9.06,3.86-1.44,6.93-4.29,8.64-8.04,1.71-3.75,1.86-7.93,.42-11.79-1.44-3.86-4.29-6.93-8.04-8.64-2.04-.93-4.22-1.4-6.4-1.4Z"/>
      <path class="cls-1" d="M52.52,57.44c-6.98,0-13.62-2.56-18.82-7.29-5.54-5.04-8.79-11.93-9.15-19.41s2.22-14.65,7.25-20.19C36.84,5.01,43.73,1.76,51.21,1.4c7.48-.36,14.65,2.22,20.19,7.25s8.79,11.93,9.15,19.41h0c.74,15.44-11.22,28.6-26.66,29.34-.46,.02-.91,.03-1.37,.03Zm.05-43.45c-.25,0-.5,0-.75,.02-4.11,.2-7.91,1.98-10.68,5.03-2.77,3.05-4.19,6.99-3.99,11.11s1.98,7.9,5.03,10.67c3.05,2.77,6.99,4.18,11.11,3.99,8.49-.41,15.07-7.65,14.66-16.14h0c-.2-4.11-1.98-7.9-5.03-10.67-2.86-2.6-6.51-4.01-10.35-4.01Z"/>
      <path class="cls-1" d="M98.41,126.11c-7.07,.53-13.98-1.6-19.55-6.04-5.85-4.67-9.54-11.34-10.38-18.78-1.73-15.36,9.36-29.26,24.72-30.99h0c15.35-1.72,29.26,9.36,30.99,24.72,.84,7.44-1.27,14.76-5.94,20.62-4.67,5.85-11.34,9.54-18.78,10.38-.35,.04-.71,.07-1.06,.1Zm-3.8-43.28c-8.45,.95-14.55,8.6-13.6,17.05,.46,4.09,2.49,7.76,5.71,10.33,3.22,2.57,7.26,3.74,11.34,3.27,4.09-.46,7.76-2.49,10.33-5.71,2.57-3.22,3.73-7.25,3.27-11.34-.95-8.45-8.59-14.56-17.05-13.6h0Z"/>
      <rect class="cls-1" x="128.37" y="89.29" width="12.62" height="36.16" transform="translate(-.78 213.75) rotate(-76.71)"/>
      <path class="cls-1" d="M28,147.29c-6.98,0-13.62-2.56-18.82-7.29C3.64,134.96,.39,128.07,.03,120.59s2.22-14.65,7.25-20.19c5.04-5.54,11.93-8.79,19.41-9.15,15.45-.74,28.6,11.22,29.34,26.66h0c.36,7.48-2.22,14.65-7.25,20.19s-11.93,8.79-19.41,9.15c-.46,.02-.92,.03-1.37,.03Zm.04-43.45c-.25,0-.5,0-.75,.02-4.11,.2-7.9,1.98-10.67,5.03s-4.19,6.99-3.99,11.11c.2,4.11,1.98,7.9,5.03,10.67,3.05,2.77,6.99,4.18,11.11,3.99,4.11-.2,7.91-1.98,10.67-5.03,2.77-3.05,4.19-6.99,3.99-11.11-.39-8.24-7.23-14.68-15.39-14.68Z"/>
      <path class="cls-1" d="M97.17,210.08c-3.27,0-6.55-.58-9.71-1.75-7.03-2.59-12.62-7.76-15.76-14.56-3.14-6.8-3.44-14.41-.85-21.44,5.35-14.5,21.5-21.96,36-16.61h0c14.5,5.35,21.95,21.5,16.61,36-2.59,7.03-7.76,12.62-14.56,15.76-3.74,1.73-7.73,2.59-11.73,2.59Zm0-43.47c-6.28,0-12.19,3.86-14.48,10.09-1.42,3.86-1.26,8.05,.47,11.79s4.8,6.58,8.67,8.01c3.86,1.42,8.05,1.26,11.79-.47,3.74-1.72,6.58-4.8,8.01-8.67,2.94-7.98-1.16-16.86-9.13-19.8-1.75-.65-3.55-.95-5.32-.95Z"/>
      <path class="cls-1" d="M174.84,149.66c-.46,0-.91-.01-1.37-.03-7.48-.36-14.37-3.61-19.41-9.15-5.04-5.54-7.61-12.71-7.25-20.19,.36-7.48,3.61-14.37,9.15-19.41,5.54-5.04,12.72-7.62,20.19-7.25,15.44,.74,27.4,13.9,26.66,29.34-.36,7.48-3.61,14.37-9.15,19.41-5.2,4.73-11.84,7.29-18.82,7.29Zm-.05-43.45c-3.84,0-7.49,1.41-10.35,4.01-3.05,2.77-4.83,6.56-5.03,10.67h0c-.2,4.11,1.22,8.06,3.99,11.11,2.77,3.05,6.56,4.83,10.67,5.03,4.11,.2,8.06-1.22,11.11-3.99s4.84-6.56,5.03-10.67c.41-8.49-6.17-15.73-14.66-16.14-.25-.01-.5-.02-.75-.02Z"/>
      <path class="cls-1" d="M40.62,139.93c-2.55,1.03-5.12,2.01-7.77,2.72-3.41,.91-6.87,1.29-10.38,1.27,12.09,21.15,32.6,36.89,56.94,42.62,.98-5.73,2.56-11.52,4.98-16.84-18.12-4-33.67-14.89-43.78-29.77Z"/>
      <path class="cls-1" d="M37.57,36.31c-16.51,16.17-26.78,38.69-26.78,63.57,0,1.65,.06,3.29,.15,4.93,1.55-2.04,3.38-3.79,5.97-4.87,2.81-1.18,5.45-1.26,8.46-1.14,1,.04,1.99,.06,2.96,.02,.28-19.1,8.09-36.41,20.58-49.09-5.38-2.91-8.68-7.97-11.34-13.43Z"/>
      <path class="cls-1" d="M129.32,16.42c-9.63-3.58-20.05-5.54-30.91-5.54-8.41,0-16.55,1.18-24.26,3.37,2.71,5.12,3.91,10.99,5.1,16.77,6.1-1.7,12.53-2.61,19.17-2.61,9.38,0,18.34,1.82,26.55,5.12-.12-5.84,2.2-11.53,4.36-17.1Z"/>
      <path class="cls-1" d="M166.57,141.85c-2.04-1.4-4.01-2.89-5.93-4.45-9.68,15.64-25.23,27.29-43.55,31.86,1.63,3.7,3,7.51,4,11.41,.45,1.74,.84,3.54,1.12,5.36,22.38-5.83,41.37-20.17,53.27-39.34-3.22-1.04-6.24-3.01-8.91-4.84Z"/>
    </g>
  </g>
</svg>