<?xml version="1.0" encoding="UTF-8"?>
<svg id="Capa_2" data-name="Capa 2" xmlns="http://www.w3.org/2000/svg" viewBox="0 0 27.9 28.9">
  <defs>
    <style>
      .cls-1 {
        fill: #282828;
      }
    </style>
  </defs>
  <g id="Capa_1-2" data-name="Capa 1">
    <g>
      <path class="cls-1" d="M19.94,7.72c-1.56,0-3.04-.96-3.62-2.51-.74-1.99,.27-4.22,2.27-4.96,.97-.36,2.01-.32,2.95,.11,.94,.43,1.65,1.2,2.01,2.16,.36,.97,.32,2.01-.11,2.95-.43,.94-1.2,1.65-2.16,2.01-.44,.16-.9,.24-1.34,.24Zm0-5.98c-.25,0-.5,.04-.74,.13-1.1,.41-1.66,1.63-1.25,2.73,.41,1.1,1.63,1.66,2.73,1.25,.53-.2,.95-.59,1.19-1.11,.24-.52,.26-1.09,.06-1.62-.2-.53-.59-.95-1.11-1.19-.28-.13-.58-.19-.88-.19Z"/>
      <path class="cls-1" d="M7.22,7.9c-.96,0-1.87-.35-2.59-1-.76-.69-1.21-1.64-1.26-2.67s.31-2.02,1-2.78C5.07,.69,6.02,.24,7.04,.19c1.03-.05,2.02,.31,2.78,1,.76,.69,1.21,1.64,1.26,2.67h0c.1,2.12-1.54,3.93-3.67,4.04-.06,0-.13,0-.19,0Zm0-5.98s-.07,0-.1,0c-.57,.03-1.09,.27-1.47,.69-.38,.42-.58,.96-.55,1.53s.27,1.09,.69,1.47c.42,.38,.96,.57,1.53,.55,1.17-.06,2.07-1.05,2.02-2.22h0c-.03-.57-.27-1.09-.69-1.47-.39-.36-.9-.55-1.42-.55Z"/>
      <path class="cls-1" d="M13.54,17.35c-.97,.07-1.92-.22-2.69-.83-.81-.64-1.31-1.56-1.43-2.58-.24-2.11,1.29-4.03,3.4-4.26h0c2.11-.24,4.03,1.29,4.26,3.4,.12,1.02-.18,2.03-.82,2.84-.64,.81-1.56,1.31-2.58,1.43-.05,0-.1,.01-.15,.01Zm-.52-5.95c-1.16,.13-2,1.18-1.87,2.35,.06,.56,.34,1.07,.79,1.42,.44,.35,1,.51,1.56,.45,.56-.06,1.07-.34,1.42-.79s.51-1,.45-1.56c-.13-1.16-1.18-2-2.35-1.87h0Z"/>
      <rect class="cls-1" x="17.66" y="12.28" width="1.74" height="4.97" transform="translate(-.11 29.4) rotate(-76.71)"/>
      <path class="cls-1" d="M3.85,20.26c-.96,0-1.87-.35-2.59-1C.5,18.57,.05,17.62,0,16.59s.31-2.02,1-2.78,1.64-1.21,2.67-1.26c2.13-.1,3.93,1.54,4.04,3.67h0c.05,1.03-.31,2.02-1,2.78s-1.64,1.21-2.67,1.26c-.06,0-.13,0-.19,0Zm0-5.98s-.07,0-.1,0c-.57,.03-1.09,.27-1.47,.69s-.58,.96-.55,1.53c.03,.57,.27,1.09,.69,1.47,.42,.38,.96,.57,1.53,.55,.57-.03,1.09-.27,1.47-.69,.38-.42,.58-.96,.55-1.53-.05-1.13-.99-2.02-2.12-2.02Z"/>
      <path class="cls-1" d="M13.37,28.9c-.45,0-.9-.08-1.34-.24-.97-.36-1.74-1.07-2.17-2-.43-.94-.47-1.98-.12-2.95,.74-2,2.96-3.02,4.95-2.28h0c2,.74,3.02,2.96,2.28,4.95-.36,.97-1.07,1.74-2,2.17-.51,.24-1.06,.36-1.61,.36Zm0-5.98c-.86,0-1.68,.53-1.99,1.39-.2,.53-.17,1.11,.06,1.62,.24,.51,.66,.91,1.19,1.1,.53,.2,1.11,.17,1.62-.06,.51-.24,.91-.66,1.1-1.19,.4-1.1-.16-2.32-1.26-2.72-.24-.09-.49-.13-.73-.13Z"/>
      <path class="cls-1" d="M24.05,20.59c-.06,0-.13,0-.19,0-1.03-.05-1.98-.5-2.67-1.26-.69-.76-1.05-1.75-1-2.78s.5-1.98,1.26-2.67c.76-.69,1.75-1.05,2.78-1,2.12,.1,3.77,1.91,3.67,4.04-.05,1.03-.5,1.98-1.26,2.67-.72,.65-1.63,1-2.59,1Zm0-5.98c-.53,0-1.03,.19-1.42,.55-.42,.38-.67,.9-.69,1.47h0c-.03,.57,.17,1.11,.55,1.53,.38,.42,.9,.67,1.47,.69,.57,.03,1.11-.17,1.53-.55s.67-.9,.69-1.47c.06-1.17-.85-2.16-2.02-2.22-.03,0-.07,0-.1,0Z"/>
      <path class="cls-1" d="M5.59,19.25c-.35,.14-.7,.28-1.07,.37-.47,.13-.95,.18-1.43,.17,1.66,2.91,4.49,5.08,7.83,5.86,.13-.79,.35-1.58,.69-2.32-2.49-.55-4.63-2.05-6.02-4.09Z"/>
      <path class="cls-1" d="M5.17,5C2.9,7.22,1.49,10.32,1.49,13.74c0,.23,0,.45,.02,.68,.21-.28,.47-.52,.82-.67,.39-.16,.75-.17,1.16-.16,.14,0,.27,0,.41,0,.04-2.63,1.11-5.01,2.83-6.75-.74-.4-1.19-1.1-1.56-1.85Z"/>
      <path class="cls-1" d="M17.79,2.26c-1.33-.49-2.76-.76-4.25-.76-1.16,0-2.28,.16-3.34,.46,.37,.7,.54,1.51,.7,2.31,.84-.23,1.72-.36,2.64-.36,1.29,0,2.52,.25,3.65,.7-.02-.8,.3-1.59,.6-2.35Z"/>
      <path class="cls-1" d="M22.91,19.51c-.28-.19-.55-.4-.82-.61-1.33,2.15-3.47,3.75-5.99,4.38,.22,.51,.41,1.03,.55,1.57,.06,.24,.12,.49,.15,.74,3.08-.8,5.69-2.77,7.33-5.41-.44-.14-.86-.41-1.23-.67Z"/>
    </g>
  </g>
</svg>